<svg xmlns="http://www.w3.org/2000/svg" viewBox="0 0 800 850"><defs><pattern id="grain" width="7" height="7" patternUnits="userSpaceOnUse"><circle cx="2" cy="3" r=".6" fill="#fff" opacity=".2"/></pattern></defs><rect width="800" height="850" fill="#293b31"/><circle cx="565" cy="240" r="130" fill="#8e9777" opacity=".25"/><path d="M 300 135 H 406 L 399 247 Q 470 305 463 405 L 440 677 Q 354 710 273 677 L 248 405 Q 241 305 308 247 Z" fill="#e7e2d3"/><path d="M 308 148 H 398" stroke="#bbb8a6" stroke-width="9"/><path d="M 280 395 Q 355 420 432 395 L 416 593 Q 352 610 293 591 Z" fill="#c8c8b5"/><path d="M 335 433 L 374 461 L 345 506 L 375 553" stroke="#596c58" fill="none" stroke-width="3"/><ellipse cx="555" cy="610" rx="80" ry="30" fill="#d7d4c1"/><path d="M 475 610 Q 480 710 555 714 Q 630 710 635 610" fill="#d7d4c1"/><ellipse cx="555" cy="610" rx="65" ry="21" fill="#9b9f88"/><path d="M 153 739 Q 433 771 685 735" stroke="#bdc1a4" fill="none" opacity=".4"/><rect width="800" height="850" fill="url(#grain)"/></svg>